<?xml version="1.0" encoding="UTF-8" standalone="no"?>
<!-- Created with Inkscape (http://www.inkscape.org/) -->

<svg
   width="9.3017578mm"
   height="2.1704102mm"
   viewBox="0 0 9.3017578 2.1704102"
   version="1.1"
   id="svg5"
   xmlns="http://www.w3.org/2000/svg"
   xmlns:svg="http://www.w3.org/2000/svg">
  <defs
     id="defs2" />
  <g
     id="layer1"
     transform="translate(-40.761666,-57.087653)">
    <g
       aria-label="CARS"
       id="text113"
       style="font-size:3.175px;stroke-width:0.204">
      <path
         d="m 40.761669,57.397713 q 0,-0.310059 0.310059,-0.310059 h 1.240234 q 0.310059,0 0.310059,0.310059 v 0.310058 h -0.620117 v -0.310058 h -0.620118 v 1.550293 h 0.620118 v -0.310059 h 0.620117 v 0.310059 q 0,0.310058 -0.310059,0.310058 h -1.240234 q -0.310059,0 -0.310059,-0.310058 z"
         style="font-family:'Commodore 64 Rounded';-inkscape-font-specification:'Commodore 64 Rounded'"
         id="path1582" />
      <path
         d="m 43.242138,57.707771 0.310058,-0.310058 0.310059,-0.310059 h 0.620117 l 0.310059,0.310059 0.310058,0.310058 v 1.550293 h -0.620117 v -0.930175 h -0.620117 v 0.930175 h -0.620117 z m 0.620117,0 v 0.310059 h 0.620117 v -0.310059 z"
         style="font-family:'Commodore 64 Rounded';-inkscape-font-specification:'Commodore 64 Rounded'"
         id="path1584" />
      <path
         d="M 45.722607,57.087654 H 47.2729 q 0.310058,0 0.310058,0.310059 v 0.620117 q 0,0.310059 -0.310058,0.310059 h -0.310059 l 0.620117,0.620117 v 0.310058 h -0.620117 v -0.310058 l -0.310059,-0.310059 h -0.310058 v 0.620117 h -0.620117 z m 0.620117,0.310059 v 0.620117 h 0.620117 v -0.620117 z"
         style="font-family:'Commodore 64 Rounded';-inkscape-font-specification:'Commodore 64 Rounded'"
         id="path1586" />
      <path
         d="m 48.203075,58.637947 h 0.620118 v 0.310059 h 0.620117 v -0.620117 h -0.930176 q -0.310059,0 -0.310059,-0.310059 v -0.620117 q 0,-0.310059 0.310059,-0.310059 h 1.240234 q 0.310059,0 0.310059,0.310059 v 0.310058 H 49.44331 v -0.310058 h -0.620117 v 0.620117 h 0.930175 q 0.310059,0 0.310059,0.310059 v 0.620117 q 0,0.310058 -0.310059,0.310058 h -1.240234 q -0.310059,0 -0.310059,-0.310058 z"
         style="font-family:'Commodore 64 Rounded';-inkscape-font-specification:'Commodore 64 Rounded'"
         id="path1588" />
    </g>
  </g>
</svg>
